<?xml version="1.0" encoding="UTF-8" standalone="no"?>
<svg
   xmlns:dc="http://purl.org/dc/elements/1.1/"
   xmlns:cc="http://creativecommons.org/ns#"
   xmlns:rdf="http://www.w3.org/1999/02/22-rdf-syntax-ns#"
   xmlns:svg="http://www.w3.org/2000/svg"
   xmlns="http://www.w3.org/2000/svg"
   xmlns:xlink="http://www.w3.org/1999/xlink"
   xmlns:sodipodi="http://sodipodi.sourceforge.net/DTD/sodipodi-0.dtd"
   xmlns:inkscape="http://www.inkscape.org/namespaces/inkscape"
   inkscape:version="1.0 (4035a4f, 2020-05-01)"
   sodipodi:docname="404-large.svg"
   width="800"
   height="240"
   viewBox="0 0 800 240"
   version="1.1"
   id="svg8">
  <sodipodi:namedview
     inkscape:current-layer="svg8"
     inkscape:window-maximized="0"
     inkscape:window-y="23"
     inkscape:window-x="43"
     inkscape:cy="157.30965"
     inkscape:cx="386.37553"
     inkscape:zoom="2.814285"
     showgrid="false"
     id="namedview842"
     inkscape:window-height="855"
     inkscape:window-width="1397"
     inkscape:pageshadow="2"
     inkscape:pageopacity="0"
     guidetolerance="10"
     gridtolerance="10"
     objecttolerance="10"
     borderopacity="1"
     bordercolor="#666666"
     pagecolor="#ffffff" />
  <defs
     id="defs2">
    <linearGradient
       id="linearGradient830">
      <stop
         style="stop-color:#000000;stop-opacity:0.8;"
         offset="0"
         id="stop826" />
      <stop
         style="stop-color:#000000;stop-opacity:0.2"
         offset="1"
         id="stop828" />
    </linearGradient>
    <linearGradient
       gradientTransform="translate(-5.2148873,-245.74476)"
       xlink:href="#linearGradient830"
       id="linearGradient886"
       gradientUnits="userSpaceOnUse"
       x1="398"
       y1="246.26665"
       x2="398"
       y2="484.22604" />
  </defs>
  <metadata
     id="metadata5">
    <rdf:RDF>
      <cc:Work
         rdf:about="">
        <dc:format>image/svg+xml</dc:format>
        <dc:type
           rdf:resource="http://purl.org/dc/dcmitype/StillImage" />
        <dc:title />
      </cc:Work>
    </rdf:RDF>
  </metadata>
  <g
     id="layer1">
    <path
       sodipodi:nodetypes="cccccccccccccscssssscsccscscscscscccccccccccccc"
       id="path879"
       style="fill:url(#linearGradient886);fill-opacity:1;stroke:none"
       d="M 565.08906,240.30367 559.15564,205.69203 695.62439,5.93343 h 49.4452 v 198.27525 h 44.50068 v 36.09499 z m 136.9632,-184.92504 -98.8904,148.83005 h 98.8904 z M 464.86213,240.48121 c 2.96671,-16.48173 4.45006,-50.44682 4.45006,-69.89527 0,-19.44845 -1.48335,-37.41354 -4.45006,-53.89527 -2.63708,-16.48173 -6.92233,-30.65602 -12.85576,-42.52287 -5.93342,-11.86685 -13.67983,-21.09662 -23.23924,-27.68931 -9.55941,-6.59269 -21.26144,-9.88904 -35.10609,-9.88904 -13.84466,0 -25.54669,3.29635 -35.10609,9.88904 -9.55941,6.59269 -17.30582,15.82246 -23.23925,27.68931 -5.93342,11.86685 -10.38349,26.04114 -13.3502,42.52287 -2.63708,16.48173 -3.95562,34.44682 -3.95562,53.89527 0,19.44845 1.31854,53.41354 3.95562,69.89527 l -42.02842,-0.15535 c -4.61489,-20.76698 -6.92233,-45.34695 -6.92233,-69.73992 0,-24.06333 2.30744,-46.47848 6.92233,-67.24547 4.94452,-21.09662 12.3613,-39.22653 22.25034,-54.38972 9.88904,-15.16319 22.41516,-27.03004 37.57835,-35.60054 C 354.92896,4.45007 372.89405,0 393.66104,0 c 20.76698,0 38.73207,4.45007 53.89527,13.35021 15.16319,8.5705 27.68931,20.43735 37.57835,35.60054 9.88904,15.16319 17.141,33.2931 21.75589,54.38972 4.94452,20.76699 7.41678,43.18214 7.41678,67.24547 0,24.39297 -2.47226,48.97294 -7.41678,69.73992 z M 5.9334237,240.30367 0,205.69203 136.46875,5.93343 h 49.4452 v 198.27525 h 44.50068 v 36.09499 z M 142.89662,55.37863 44.006228,204.20868 h 98.890392 z" />
  </g>
</svg>
