<?xml version="1.0" encoding="UTF-8" standalone="no"?>
<!-- Created with Inkscape (http://www.inkscape.org/) -->

<svg
   xmlns:dc="http://purl.org/dc/elements/1.1/"
   xmlns:cc="http://creativecommons.org/ns#"
   xmlns:rdf="http://www.w3.org/1999/02/22-rdf-syntax-ns#"
   xmlns:svg="http://www.w3.org/2000/svg"
   xmlns="http://www.w3.org/2000/svg"
   xmlns:xlink="http://www.w3.org/1999/xlink"
   xmlns:sodipodi="http://sodipodi.sourceforge.net/DTD/sodipodi-0.dtd"
   xmlns:inkscape="http://www.inkscape.org/namespaces/inkscape"
   width="320"
   height="240"
   viewBox="0 0 320 240"
   id="svg2"
   version="1.1"
   inkscape:version="0.92.2 5c3e80d, 2017-08-06"
   sodipodi:docname="overview-recipes.svg">
  <defs
     id="defs4">
    <linearGradient
       gradientUnits="userSpaceOnUse"
       y2="294.53571"
       x2="213.56531"
       y1="296.28571"
       x1="240.90501"
       id="linearGradient5216"
       xlink:href="#linearGradient5162"
       inkscape:collect="always" />
    <linearGradient
       id="linearGradient5162"
       inkscape:collect="always">
      <stop
         id="stop5164"
         offset="0"
         style="stop-color:#d3d7cf;stop-opacity:1" />
      <stop
         style="stop-color:#ffffff;stop-opacity:1"
         offset="0.26010308"
         id="stop5170" />
      <stop
         id="stop5166"
         offset="1"
         style="stop-color:#eeeeec;stop-opacity:1" />
    </linearGradient>
    <linearGradient
       y2="303.89435"
       x2="244.11897"
       y1="305.97644"
       x1="222.49843"
       gradientUnits="userSpaceOnUse"
       id="linearGradient5210"
       xlink:href="#linearGradient5162"
       inkscape:collect="always" />
    <filter
       height="1.6883019"
       y="-0.34415093"
       width="2.586087"
       x="-0.79304349"
       id="filter5190"
       style="color-interpolation-filters:sRGB"
       inkscape:collect="always">
      <feGaussianBlur
         id="feGaussianBlur5192"
         stdDeviation="0.95"
         inkscape:collect="always" />
    </filter>
    <linearGradient
       y2="264.81958"
       x2="223.28932"
       y1="301.72061"
       x1="216.62422"
       gradientTransform="translate(-1.4356602,1.7803301)"
       gradientUnits="userSpaceOnUse"
       id="linearGradient5212"
       xlink:href="#linearGradient5162"
       inkscape:collect="always" />
    <filter
       height="1.7777836"
       y="-0.38889182"
       width="1.2810057"
       x="-0.14050286"
       id="filter10638"
       style="color-interpolation-filters:sRGB"
       inkscape:collect="always">
      <feGaussianBlur
         id="feGaussianBlur10640"
         stdDeviation="1.1342678"
         inkscape:collect="always" />
    </filter>
    <linearGradient
       gradientTransform="matrix(3.041012,0,0,3.0442279,-598.6696,-792.77711)"
       gradientUnits="userSpaceOnUse"
       y2="264.81958"
       x2="223.28932"
       y1="301.72061"
       x1="216.62422"
       id="linearGradient5174"
       xlink:href="#linearGradient5162"
       inkscape:collect="always" />
    <linearGradient
       gradientTransform="matrix(3.041012,0,0,3.0442279,-594.30373,-798.19682)"
       gradientUnits="userSpaceOnUse"
       y2="302.39435"
       x2="207.99397"
       y1="308.10144"
       x1="242.12343"
       id="linearGradient5172"
       xlink:href="#linearGradient5162"
       inkscape:collect="always" />
    <linearGradient
       gradientTransform="matrix(3.041012,0,0,3.0442279,-514.85729,-811.89584)"
       gradientUnits="userSpaceOnUse"
       y2="289.71387"
       x2="206.375"
       y1="290.83887"
       x1="210.75"
       id="linearGradient5236"
       xlink:href="#linearGradient5162"
       inkscape:collect="always" />
    <linearGradient
       gradientTransform="matrix(3.041012,0,0,3.0442279,-594.30373,-798.19682)"
       gradientUnits="userSpaceOnUse"
       y2="301.41071"
       x2="256.44031"
       y1="302.53571"
       x1="216.90501"
       id="linearGradient5214"
       xlink:href="#linearGradient5162"
       inkscape:collect="always" />
    <filter
       height="1.7275329"
       y="-0.36376643"
       width="1.2628506"
       x="-0.13142529"
       id="filter10634"
       style="color-interpolation-filters:sRGB"
       inkscape:collect="always">
      <feGaussianBlur
         id="feGaussianBlur10636"
         stdDeviation="1.0609854"
         inkscape:collect="always" />
    </filter>
    <radialGradient
       gradientUnits="userSpaceOnUse"
       gradientTransform="matrix(1.5323733,-0.18588701,0.10398965,0.85724548,162.45366,-61.087583)"
       r="65.75"
       fy="-340.96689"
       fx="-219.91811"
       cy="-340.96689"
       cx="-219.91811"
       id="radialGradient5238"
       xlink:href="#linearGradient3636"
       inkscape:collect="always" />
    <linearGradient
       id="linearGradient3636"
       inkscape:collect="always">
      <stop
         id="stop3638"
         offset="0"
         style="stop-color:#f2ddb5;stop-opacity:1" />
      <stop
         id="stop3640"
         offset="1"
         style="stop-color:#d8b36a;stop-opacity:1" />
    </linearGradient>
    <clipPath
       id="clipPath4577"
       clipPathUnits="userSpaceOnUse">
      <ellipse
         ry="11.625"
         rx="65.75"
         cy="-310.75"
         cx="-193.125"
         id="ellipse4579"
         style="opacity:1;fill:#ff00ff;fill-opacity:1;fill-rule:evenodd;stroke:#000000;stroke-width:1;stroke-linecap:round;stroke-linejoin:bevel;stroke-miterlimit:4;stroke-dasharray:none;stroke-dashoffset:0;stroke-opacity:1" />
    </clipPath>
    <linearGradient
       gradientUnits="userSpaceOnUse"
       y2="319.25"
       x2="162.75"
       y1="319.25"
       x1="296.25"
       id="linearGradient5266"
       xlink:href="#linearGradient3636"
       inkscape:collect="always" />
    <clipPath
       id="clipPath5262"
       clipPathUnits="userSpaceOnUse">
      <ellipse
         style="opacity:1;fill:#ff00ff;fill-opacity:1;fill-rule:evenodd;stroke:#000000;stroke-width:1;stroke-linecap:round;stroke-linejoin:bevel;stroke-miterlimit:4;stroke-dasharray:none;stroke-dashoffset:0;stroke-opacity:1"
         id="ellipse5264"
         cx="228.875"
         cy="319.25"
         rx="65.75"
         ry="11.625" />
    </clipPath>
    <linearGradient
       gradientTransform="matrix(2.3242717,0,0,2.3267296,-371.96768,-589.70582)"
       gradientUnits="userSpaceOnUse"
       y2="320.125"
       x2="284.875"
       y1="320.125"
       x1="163.5"
       id="linearGradient5242"
       xlink:href="#linearGradient3636"
       inkscape:collect="always" />
  </defs>
  <sodipodi:namedview
     id="base"
     pagecolor="#ffffff"
     bordercolor="#666666"
     borderopacity="1.0"
     inkscape:pageopacity="0.0"
     inkscape:pageshadow="2"
     inkscape:zoom="0.35"
     inkscape:cx="375"
     inkscape:cy="520"
     inkscape:document-units="px"
     inkscape:current-layer="layer1"
     showgrid="false"
     inkscape:snap-smooth-nodes="true"
     inkscape:object-nodes="true"
     inkscape:snap-nodes="true"
     inkscape:snap-global="false">
    <inkscape:grid
       type="xygrid"
       id="grid6420" />
  </sodipodi:namedview>
  <metadata
     id="metadata7">
    <rdf:RDF>
      <cc:Work
         rdf:about="">
        <dc:format>image/svg+xml</dc:format>
        <dc:type
           rdf:resource="http://purl.org/dc/dcmitype/StillImage" />
        <dc:title />
      </cc:Work>
    </rdf:RDF>
  </metadata>
  <g
     inkscape:label="Layer 1"
     inkscape:groupmode="layer"
     id="layer1">
    <path
       sodipodi:nodetypes="sccsccs"
       inkscape:connector-curvature="0"
       id="ellipse4564"
       d="m 160.00002,126.05439 c -84.400643,0 -152.8208749,12.10991 -152.8208749,27.04823 v 9.30692 c 0,14.93833 68.4202319,27.04824 152.8208749,27.04824 84.40062,0 152.82086,-12.10991 152.82086,-27.04824 v -9.30692 c 0,-14.93832 -68.42024,-27.04823 -152.82086,-27.04823 z"
       style="display:inline;opacity:1;fill:url(#linearGradient5242);fill-opacity:1;fill-rule:evenodd;stroke:none;stroke-width:1;stroke-linecap:round;stroke-linejoin:bevel;stroke-miterlimit:4;stroke-dasharray:none;stroke-dashoffset:0;stroke-opacity:1" />
    <path
       transform="matrix(2.3242717,0,0,2.3267296,-371.96768,-589.70581)"
       clip-path="url(#clipPath5262)"
       style="display:inline;opacity:1;fill:url(#linearGradient5266);fill-opacity:1;fill-rule:evenodd;stroke:none;stroke-width:0.43001503;stroke-linecap:round;stroke-linejoin:bevel;stroke-miterlimit:4;stroke-dasharray:none;stroke-dashoffset:0;stroke-opacity:1"
       d="m 228.875,307.625 c -36.31272,0 -65.75,5.20469 -65.75,11.625 v 4 c 0,6.42031 29.43728,11.625 65.75,11.625 36.31272,0 65.75,-5.20469 65.75,-11.625 v -4 c 0,-6.42031 -29.43728,-11.625 -65.75,-11.625 z"
       id="path5260"
       inkscape:connector-curvature="0"
       sodipodi:nodetypes="sccsccs" />
    <ellipse
       transform="matrix(2.3242717,0,0,2.3267296,608.87497,876.13382)"
       clip-path="url(#clipPath4577)"
       ry="11.625"
       rx="65.75"
       cy="-306.75"
       cx="-193.125"
       id="path4560"
       style="display:inline;opacity:1;fill:url(#radialGradient5238);fill-opacity:1;fill-rule:evenodd;stroke:none;stroke-width:0.43001503;stroke-linecap:round;stroke-linejoin:bevel;stroke-miterlimit:4;stroke-dasharray:none;stroke-dashoffset:0;stroke-opacity:1" />
    <ellipse
       ry="27.048231"
       rx="152.82086"
       cy="153.10262"
       cx="160"
       id="ellipse5270"
       style="display:inline;opacity:1;fill:none;fill-opacity:1;fill-rule:evenodd;stroke:#f5e6c3;stroke-width:1;stroke-linecap:round;stroke-linejoin:bevel;stroke-miterlimit:4;stroke-dasharray:none;stroke-dashoffset:0;stroke-opacity:1" />
    <ellipse
       style="display:inline;opacity:1;fill:none;fill-opacity:1;fill-rule:evenodd;stroke:none;stroke-width:1;stroke-linecap:round;stroke-linejoin:bevel;stroke-miterlimit:4;stroke-dasharray:none;stroke-dashoffset:0;stroke-opacity:1"
       id="ellipse4562"
       cx="160"
       cy="157.75607"
       rx="152.82086"
       ry="27.048231" />
    <ellipse
       transform="matrix(3.0452946,0,0,2.3267296,-515.36109,-589.70581)"
       ry="3.5"
       rx="9.6875"
       cy="324.75"
       cx="208.5625"
       id="path5218"
       style="display:inline;opacity:1;fill:#d8b36a;fill-opacity:1;fill-rule:evenodd;stroke:none;stroke-width:0.43001503;stroke-linecap:round;stroke-linejoin:bevel;stroke-miterlimit:4;stroke-dasharray:none;stroke-dashoffset:0;stroke-opacity:1;filter:url(#filter10634)" />
    <path
       id="path5151"
       style="display:inline;fill:url(#linearGradient5214);fill-rule:evenodd;stroke:none;stroke-width:1px;stroke-linecap:butt;stroke-linejoin:miter;stroke-opacity:1"
       d="m 65.30697,77.65464 c 0,47.83841 24.090834,75.26491 24.090834,90.00326 0,0 10.964216,4.3052 16.446336,4.3052 5.48212,0 16.44633,-4.3052 16.44633,-4.3052 0,-14.73835 24.0908,-42.16485 24.0908,-90.00326 0,0 -27.02477,-4.036109 -40.53713,-4.036109 -13.512385,0 -40.53717,4.036109 -40.53717,4.036109 z"
       inkscape:connector-curvature="0"
       sodipodi:nodetypes="cczcczc" />
    <path
       sodipodi:nodetypes="ccccc"
       inkscape:connector-curvature="0"
       id="path5230"
       d="m 113.87192,101.75305 8.7429,-49.088185 c 4.28994,-3.623835 6.83346,-2.003035 9.12302,0.380537 L 117.29305,102.5141 Z"
       style="display:inline;fill:url(#linearGradient5236);fill-rule:evenodd;stroke:none;stroke-width:1px;stroke-linecap:butt;stroke-linejoin:miter;stroke-opacity:1" />
    <path
       style="display:inline;opacity:1;fill:#8f6b32;fill-opacity:1;fill-rule:evenodd;stroke:none;stroke-width:1;stroke-linecap:round;stroke-linejoin:bevel;stroke-miterlimit:4;stroke-dasharray:none;stroke-dashoffset:0;stroke-opacity:1"
       d="m 144.36724,79.977194 c 0,1.47724 -16.77347,2.674779 -37.4646,2.674779 -20.691126,0 -37.464603,-1.197539 -37.464602,-2.674779 -1e-6,-1.47724 16.773476,-2.674779 37.464602,-2.674779 3.9187,0 7.69687,0.04295 11.24719,0.122627 0.31591,1.721591 5.33725,1.854065 6.59416,0.199565 11.68769,0.452752 19.62325,1.336506 19.62325,2.352587 z"
       id="path10574"
       inkscape:connector-curvature="0"
       sodipodi:nodetypes="cscsccc" />
    <path
       sodipodi:nodetypes="cczcczc"
       inkscape:connector-curvature="0"
       d="m 65.30697,77.65464 c 0,47.83841 24.090834,75.26491 24.090834,90.00326 0,0 10.964216,4.3052 16.446336,4.3052 5.48212,0 16.44633,-4.3052 16.44633,-4.3052 0,-14.73835 24.0908,-42.16485 24.0908,-90.00326 0,2.152597 -27.02477,4.036131 -40.53713,4.036131 -13.512385,0 -40.53717,-2.421684 -40.53717,-4.036131 z"
       style="display:inline;fill:url(#linearGradient5172);fill-rule:evenodd;stroke:none;stroke-width:1px;stroke-linecap:butt;stroke-linejoin:miter;stroke-opacity:1"
       id="path5145" />
    <path
       transform="matrix(3.041012,0,0,3.0442278,-514.85729,-817.98429)"
       inkscape:connector-curvature="0"
       id="path5176"
       d="M 192.125,300.875 194,307 l 1,-6.625 z"
       style="display:inline;fill:#babdb6;fill-rule:evenodd;stroke:none;stroke-width:0.43001503px;stroke-linecap:butt;stroke-linejoin:miter;stroke-opacity:1;filter:url(#filter5190)" />
    <path
       sodipodi:nodetypes="ccccccccc"
       inkscape:connector-curvature="0"
       id="path5153"
       d="m 79.540834,95.348116 c -2.031832,-0.725963 -3.308882,-1.577826 -11.194249,-1.327167 -6.74436,-0.128668 -11.407226,1.30497 -15.298757,3.317963 0.419398,9.511538 1.312272,19.023088 5.970245,28.534618 l 18.657074,0.33186 v -2.98615 c 0.28372,-2.41181 -6.380297,-2.5053 -12.313647,-2.84259 -2.114803,-6.64202 -2.031177,-13.28402 -2.058562,-19.92604 12.152824,0.13937 15.117618,-2.229775 16.237896,-5.102494 z"
       style="display:inline;fill:url(#linearGradient5174);fill-rule:evenodd;stroke:none;stroke-width:1px;stroke-linecap:butt;stroke-linejoin:miter;stroke-opacity:1" />
    <ellipse
       transform="matrix(2.9853802,0,0,1.8281446,-514.19648,-428.9202)"
       style="display:inline;opacity:1;fill:#d8b36a;fill-opacity:1;fill-rule:evenodd;stroke:none;stroke-width:0.43001503;stroke-linecap:round;stroke-linejoin:bevel;stroke-miterlimit:4;stroke-dasharray:none;stroke-dashoffset:0;stroke-opacity:1;filter:url(#filter10638)"
       id="ellipse5224"
       cx="244.8125"
       cy="323.875"
       rx="9.6875"
       ry="3.5" />
    <g
       style="display:inline;stroke-width:0.43001503"
       id="g5200"
       transform="matrix(-3.041012,0,0,3.0442278,901.5402,-801.09563)">
      <path
         id="path5202"
         style="fill:url(#linearGradient5216);fill-rule:evenodd;stroke:none;stroke-width:0.43001503px;stroke-linecap:butt;stroke-linejoin:miter;stroke-opacity:1"
         d="m 216.90501,287.7089 c 0,15.71446 7.92197,24.72381 7.92197,29.56522 0,0 3.60545,1.41421 5.40818,1.41421 1.80273,0 5.40818,-1.41421 5.40818,-1.41421 0,-4.84141 7.92197,-13.85076 7.92197,-29.56522 0,0 -8.88677,-1.32582 -13.33015,-1.32582 -4.44338,0 -13.33015,1.32582 -13.33015,1.32582 z"
         inkscape:connector-curvature="0"
         sodipodi:nodetypes="cczcczc" />
      <path
         sodipodi:nodetypes="cczcczc"
         inkscape:connector-curvature="0"
         d="m 216.90501,287.7089 c 0,15.71446 7.92197,24.72381 7.92197,29.56522 0,0 3.60545,1.41421 5.40818,1.41421 1.80273,0 5.40818,-1.41421 5.40818,-1.41421 0,-4.84141 7.92197,-13.85076 7.92197,-29.56522 0,0.70711 -8.88677,1.32583 -13.33015,1.32583 -4.44338,0 -13.33015,-0.7955 -13.33015,-1.32583 z"
         style="fill:url(#linearGradient5210);fill-rule:evenodd;stroke:none;stroke-width:0.43001503px;stroke-linecap:butt;stroke-linejoin:miter;stroke-opacity:1"
         id="path5204" />
      <path
         inkscape:connector-curvature="0"
         id="path5206"
         d="m 218.25,294.375 1.875,6.125 1,-6.625 z"
         style="fill:#babdb6;fill-rule:evenodd;stroke:none;stroke-width:0.43001503px;stroke-linecap:butt;stroke-linejoin:miter;stroke-opacity:1;filter:url(#filter5190)" />
      <path
         sodipodi:nodetypes="ccccccccc"
         inkscape:connector-curvature="0"
         id="path5208"
         d="m 221.58564,293.52104 c -0.66814,-0.23847 -1.08808,-0.5183 -3.68109,-0.43596 -2.2178,-0.0423 -3.75113,0.42867 -5.03081,1.08992 0.13791,3.12445 0.43152,6.2489 1.96324,9.37335 l 6.13515,0.10901 v -0.98092 c 0.0933,-0.79226 -2.09808,-0.82297 -4.04919,-0.93376 -0.69543,-2.18184 -0.66793,-4.36368 -0.67693,-6.54552 3.99631,0.0458 4.97124,-0.73246 5.33963,-1.67612 z"
         style="fill:url(#linearGradient5212);fill-rule:evenodd;stroke:none;stroke-width:0.43001497px;stroke-linecap:butt;stroke-linejoin:miter;stroke-opacity:1" />
    </g>
  </g>
</svg>
