<?xml version="1.0" encoding="UTF-8" standalone="no"?>
<svg
   xmlns:dc="http://purl.org/dc/elements/1.1/"
   xmlns:cc="http://creativecommons.org/ns#"
   xmlns:rdf="http://www.w3.org/1999/02/22-rdf-syntax-ns#"
   xmlns:svg="http://www.w3.org/2000/svg"
   xmlns="http://www.w3.org/2000/svg"
   width="64"
   height="64"
   viewBox="0 0 64 64"
   id="svg4968"
   version="1.1">
  <defs
     id="defs4970" />
  <metadata
     id="metadata4973">
    <rdf:RDF>
      <cc:Work
         rdf:about="">
        <dc:format>image/svg+xml</dc:format>
        <dc:type
           rdf:resource="http://purl.org/dc/dcmitype/StillImage" />
        <dc:title></dc:title>
      </cc:Work>
    </rdf:RDF>
  </metadata>
  <g
     id="layer1"
     transform="translate(0,16)" />
  <path
     id="path5493"
     d="m 32.000008,4.2037838 c 5.367286,0 10.734651,0.4038542 12.412073,1.211653 3.354853,1.6156134 14.648913,15.7782012 15.477491,19.4084502 0.82858,3.630235 -3.202363,21.290223 -5.523984,24.201451 -2.321631,2.911232 -18.641989,10.770878 -22.36558,10.770878 -3.723607,0 -20.043965,-7.859646 -22.3655959,-10.770878 C 7.3127761,46.11411 3.2818491,28.454132 4.1104279,24.823887 4.9390065,21.193638 16.233067,7.0310502 19.587919,5.4154368 21.265341,4.607638 26.632711,4.2037838 32.000008,4.2037838 Z m 19.708618,8.7356282 c -4.793345,1.55595 -8.678535,5.994637 -8.678535,10.369148 v 22.203698 c 0,4.285624 -5.441072,3.126882 -8.566048,0 -2.583271,-2.58484 -5.996212,-3.51618 -10.03097,-3.719402 -1.884012,-0.09485 -4.160252,0.933414 -4.057582,3.832126 0.09707,2.741714 2.853176,5.184821 3.832138,5.184821 2.202608,0 0.656469,-3.944854 2.366713,-3.944854 4.794744,0 8.549167,3.646421 13.299718,3.944854 4.62007,0.290254 8.678774,-4.539744 8.678774,-9.693042 V 18.574878 Z m -25.359485,0.225445 c -3.637578,0 -12.31459,1.151862 -12.398177,6.086372 3.889302,-2.67358 15.363459,0.234863 24.345205,-0.563612 v 8.099257 c -1.134727,0.685217 -2.63733,-0.164643 -4.057576,1.14289 -0.814041,0.74943 -2.033979,4.03123 -1.239723,5.184561 0.356441,0.517567 3.372307,-2.483054 5.297299,-0.813141 v 12.873153 c 0,1.674866 2.141519,1.567646 2.141519,0 v -26.48672 h 0.112701 c 0.839849,-2.858956 6.854378,-3.545443 7.438807,-5.297299 -2.412025,-0.277866 -4.046513,1.126989 -8.115158,1.126989 -3.546783,0 -8.246504,-1.35245 -13.524924,-1.35245 z"
     style="opacity:1;fill:#eeeeec;fill-opacity:1;fill-rule:evenodd;stroke:none;stroke-width:3;stroke-linecap:round;stroke-linejoin:round;stroke-miterlimit:4;stroke-dasharray:none;stroke-dashoffset:0;stroke-opacity:1" />
</svg>
