<?xml version="1.0" standalone="no"?>
<!DOCTYPE svg PUBLIC "-//W3C//DTD SVG 20010904//EN"
 "http://www.w3.org/TR/2001/REC-SVG-20010904/DTD/svg10.dtd">
<svg version="1.0" xmlns="http://www.w3.org/2000/svg"
 width="16.000000pt" height="16.000000pt" viewBox="0 0 16.000000 16.000000"
 preserveAspectRatio="xMidYMid meet">
<metadata>
Created by potrace 1.11, written by Peter Selinger 2001-2013
</metadata>
<g transform="translate(0.000000,16.000000) scale(0.005333,-0.005333)"
fill="#000000" stroke="none">
<path d="M0 1500 l0 -1500 1500 0 1500 0 0 1500 0 1500 -1500 0 -1500 0 0
-1500z m1841 1290 c246 -24 277 -41 457 -240 197 -217 385 -468 469 -625 l46
-87 -6 -117 c-12 -251 -139 -785 -228 -962 -48 -95 -147 -166 -450 -319 -292
-148 -535 -240 -631 -240 -93 0 -341 95 -638 246 -291 147 -392 219 -439 313
-89 176 -216 712 -228 961 l-5 115 44 86 c78 152 270 409 470 629 98 109 161
166 213 193 36 18 120 35 230 46 118 12 577 13 696 1z"/>
<path d="M2363 2370 c-126 -56 -245 -170 -302 -290 l-36 -75 -5 -595 c-5 -546
-6 -598 -22 -623 -27 -40 -53 -50 -127 -45 -86 5 -155 38 -252 123 -122 107
-255 159 -432 172 -100 7 -141 -4 -187 -52 -31 -32 -35 -42 -38 -104 -3 -57 0
-75 21 -117 28 -56 101 -132 134 -140 50 -13 83 26 83 97 0 15 4 39 10 53 8
23 15 26 58 26 70 0 148 -23 316 -94 179 -76 235 -90 325 -84 174 13 332 180
361 383 5 40 10 301 10 602 l0 532 58 103 c97 170 95 159 25 128z"/>
<path d="M1035 2365 c-211 -40 -346 -119 -374 -221 -6 -21 -9 -39 -7 -41 1 -2
25 7 52 19 67 30 261 35 547 14 119 -9 291 -16 382 -16 l165 0 0 -184 c0 -137
-3 -187 -12 -193 -7 -4 -42 -10 -77 -14 -73 -8 -106 -28 -134 -83 -41 -79 -54
-196 -22 -196 7 0 42 13 77 30 70 33 113 38 146 14 22 -15 22 -16 22 -328 0
-330 1 -336 46 -336 55 0 54 -9 54 675 l0 630 31 38 c23 28 64 54 162 101 73
35 139 71 147 81 14 17 12 18 -50 12 -36 -4 -105 -16 -155 -27 -119 -26 -205
-25 -415 6 -220 33 -468 40 -585 19z"/>
</g>
</svg>
